<!DOCTYPE svg PUBLIC "-//W3C//DTD SVG 20010904//EN" "http://www.w3.org/TR/2001/REC-SVG-20010904/DTD/svg10.dtd">
<svg version="1.0" xmlns="http://www.w3.org/2000/svg" width="26px" height="22px" viewBox="0 0 260 220" preserveAspectRatio="xMidYMid meet">
<g id="layer101" fill="#ffffff" stroke="none">
 <path d="M62 156 c-65 -68 -74 -94 -47 -133 13 -19 24 -21 108 -21 52 0 98 3 104 6 19 13 34 53 28 75 -7 21 -113 137 -126 137 -3 0 -34 -29 -67 -64z m174 -100 c-4 -15 -18 -32 -32 -38 -20 -9 -29 -8 -52 8 -26 19 -28 19 -44 2 -23 -23 -43 -23 -68 2 -31 31 -24 57 32 116 l52 55 59 -59 c52 -52 59 -64 53 -86z"/>
 </g>

</svg>