<!DOCTYPE svg PUBLIC "-//W3C//DTD SVG 20010904//EN" "http://www.w3.org/TR/2001/REC-SVG-20010904/DTD/svg10.dtd">
<svg version="1.0" xmlns="http://www.w3.org/2000/svg" width="16px" height="30px" viewBox="0 0 160 300" preserveAspectRatio="xMidYMid meet">
<g id="layer101" fill="#ffffff" stroke="none">
 <path d="M21 274 c-31 -40 -30 -142 2 -172 13 -12 29 -22 35 -22 7 0 12 -7 12 -15 0 -8 9 -19 20 -25 11 -6 20 -17 20 -25 0 -8 5 -15 10 -15 18 0 10 39 -10 50 -23 12 -27 30 -6 30 55 0 79 148 31 195 -34 35 -86 34 -114 -1z m101 -11 c11 -10 18 -30 18 -55 l0 -38 -60 0 -60 0 0 37 c0 64 58 96 102 56z m-52 -133 c0 -33 -11 -38 -34 -14 -24 23 -20 44 9 44 21 0 25 -5 25 -30z m70 18 c0 -14 -30 -48 -42 -48 -4 0 -8 14 -8 30 0 25 4 30 25 30 14 0 25 -5 25 -12z"/>
 </g>

</svg>