<!DOCTYPE svg PUBLIC "-//W3C//DTD SVG 20010904//EN" "http://www.w3.org/TR/2001/REC-SVG-20010904/DTD/svg10.dtd">
<svg version="1.0" xmlns="http://www.w3.org/2000/svg" width="20px" height="30px" viewBox="0 0 200 300" preserveAspectRatio="xMidYMid meet">
<g id="layer101" fill="#ffffff" stroke="none">
 <path d="M60 261 c0 -27 -8 -49 -30 -76 -49 -62 -40 -139 20 -170 115 -60 204 86 109 178 -13 12 -19 32 -19 62 l0 45 -40 0 c-40 0 -40 0 -40 -39z m60 9 c0 -5 -11 -10 -25 -10 -14 0 -25 5 -25 10 0 6 11 10 25 10 14 0 25 -4 25 -10z m-33 -111 c-6 -73 -5 -80 11 -77 15 3 17 14 15 83 -2 61 -1 74 7 56 6 -13 21 -37 35 -53 40 -47 33 -108 -16 -133 -39 -21 -64 -19 -95 9 -38 32 -38 85 -1 124 15 15 27 38 27 50 0 12 5 22 11 22 9 0 10 -23 6 -81z"/>
 </g>

</svg>