<!DOCTYPE svg PUBLIC "-//W3C//DTD SVG 20010904//EN" "http://www.w3.org/TR/2001/REC-SVG-20010904/DTD/svg10.dtd">
<svg version="1.0" xmlns="http://www.w3.org/2000/svg" width="28px" height="28px" viewBox="0 0 280 280" preserveAspectRatio="xMidYMid meet">
<g id="layer101" fill="#ffffff" stroke="none">
 <path d="M198 245 c-22 -20 -35 -41 -32 -49 3 -8 0 -17 -6 -21 -16 -10 -50 24 -50 50 0 29 -19 45 -52 45 -28 0 -37 -13 -18 -25 5 -3 10 -11 10 -17 0 -6 -9 -3 -20 7 -19 17 -20 17 -26 0 -10 -26 17 -69 46 -73 14 -2 33 -11 43 -20 18 -16 16 -19 -35 -64 -44 -38 -51 -49 -40 -60 11 -11 21 -4 59 40 43 50 46 52 64 36 11 -9 19 -28 19 -40 0 -30 41 -58 70 -49 20 6 21 8 4 26 -9 10 -12 19 -6 19 6 0 14 -4 17 -10 12 -19 25 -10 25 18 0 33 -16 52 -45 52 -26 0 -60 34 -50 50 4 6 14 9 22 6 13 -5 53 32 76 71 9 15 -8 43 -27 43 -6 0 -28 -16 -48 -35z m36 -26 c-15 -15 -31 -26 -36 -23 -5 4 3 19 18 35 15 15 31 26 36 23 5 -4 -3 -19 -18 -35z m-141 -11 c-9 -16 99 -119 118 -113 9 3 22 -1 29 -10 10 -13 9 -15 -9 -15 -16 0 -21 -6 -21 -26 0 -22 -2 -25 -15 -14 -8 7 -15 22 -15 33 0 28 -88 117 -116 117 -12 0 -27 7 -34 15 -11 13 -8 15 14 15 20 0 26 5 26 23 1 21 1 21 15 3 8 -10 12 -23 8 -28z"/>
 </g>

</svg>