<!DOCTYPE svg PUBLIC "-//W3C//DTD SVG 20010904//EN" "http://www.w3.org/TR/2001/REC-SVG-20010904/DTD/svg10.dtd">
<svg version="1.0" xmlns="http://www.w3.org/2000/svg" width="25px" height="28px" viewBox="0 0 250 280" preserveAspectRatio="xMidYMid meet">
<g id="layer101" fill="#ffffff" stroke="none">
 <path d="M110 220 c0 -33 4 -60 10 -60 6 0 10 -9 10 -20 0 -16 -8 -19 -62 -22 l-63 -3 -3 -33 c-2 -22 2 -34 12 -38 9 -3 16 -15 16 -25 0 -17 9 -19 104 -19 100 0 104 1 108 22 2 13 2 33 0 46 -3 21 -7 22 -107 22 -90 0 -104 -2 -108 -18 -4 -13 -5 -11 -6 6 -1 20 3 22 59 22 l60 0 0 30 c0 17 5 30 10 30 6 0 10 27 10 60 0 57 -1 60 -25 60 -24 0 -25 -3 -25 -60z m40 0 c0 -38 -4 -50 -15 -50 -11 0 -15 12 -15 50 0 38 4 50 15 50 11 0 15 -12 15 -50z m75 -175 l0 -30 -85 0 -85 0 -3 33 -3 33 88 -3 88 -3 0 -30z"/>
 </g>

</svg>