<!DOCTYPE svg PUBLIC "-//W3C//DTD SVG 20010904//EN" "http://www.w3.org/TR/2001/REC-SVG-20010904/DTD/svg10.dtd">
<svg version="1.0" xmlns="http://www.w3.org/2000/svg" width="34px" height="50px" viewBox="0 0 340 500" preserveAspectRatio="xMidYMid meet">
<g id="layer101" fill="#ffffff" stroke="none">
 <path d="M81 358 c-80 -139 -82 -144 -79 -200 7 -96 72 -158 168 -158 96 0 161 62 168 158 3 56 1 61 -79 200 -44 78 -85 142 -89 142 -4 0 -45 -64 -89 -142z m164 -30 c58 -102 70 -130 69 -166 -1 -55 -44 -111 -102 -132 -37 -13 -47 -13 -84 0 -58 21 -101 77 -102 132 -1 36 11 64 69 166 39 67 72 122 75 122 3 0 37 -55 75 -122z"/>
 <path d="M127 212 c-19 -21 -22 -54 -7 -83 8 -14 21 -19 50 -19 43 0 60 18 60 63 0 50 -70 76 -103 39z m72 -26 c16 -20 -3 -56 -29 -56 -26 0 -45 36 -29 56 6 8 19 14 29 14 10 0 23 -6 29 -14z"/>
 </g>

</svg>