<!DOCTYPE svg PUBLIC "-//W3C//DTD SVG 20010904//EN" "http://www.w3.org/TR/2001/REC-SVG-20010904/DTD/svg10.dtd">
<svg version="1.0" xmlns="http://www.w3.org/2000/svg" width="40px" height="46px" viewBox="0 0 400 460" preserveAspectRatio="xMidYMid meet">
<g id="layer101" fill="#ffffff" stroke="none">
 <path d="M271 449 c-110 -44 -271 -256 -271 -357 0 -45 29 -78 77 -88 30 -6 33 -3 57 45 31 61 32 69 6 96 l-21 22 56 72 c31 39 60 71 65 71 5 0 20 -5 34 -11 22 -10 32 -7 75 21 61 38 66 66 22 111 -30 30 -58 35 -100 18z m97 -57 c13 -19 11 -23 -28 -48 -35 -23 -45 -26 -61 -16 -36 23 -55 13 -117 -64 -65 -79 -73 -105 -45 -136 15 -17 15 -21 -2 -58 -21 -47 -41 -51 -75 -15 -21 22 -22 28 -12 62 32 105 154 257 242 301 48 24 68 18 98 -26z"/>
 </g>

</svg>