<!DOCTYPE svg PUBLIC "-//W3C//DTD SVG 20010904//EN" "http://www.w3.org/TR/2001/REC-SVG-20010904/DTD/svg10.dtd">
<svg version="1.0" xmlns="http://www.w3.org/2000/svg" width="28px" height="26px" viewBox="0 0 280 260" preserveAspectRatio="xMidYMid meet">
<g id="layer101" fill="#ffffff" stroke="none">
 <path d="M7 253 c-15 -14 -6 -89 14 -122 19 -32 23 -33 64 -28 39 6 43 4 49 -18 5 -18 17 -27 46 -35 21 -6 46 -20 54 -32 21 -30 33 -14 12 17 -9 14 -26 25 -37 25 -28 0 -59 18 -59 35 0 10 9 12 35 8 26 -4 41 -1 55 12 24 22 44 89 36 121 -9 33 -55 32 -86 -1 -30 -32 -70 -32 -108 0 -29 24 -62 32 -75 18z m71 -38 c18 -15 42 -25 60 -25 18 0 43 10 60 25 40 34 62 33 62 -4 0 -34 -42 -97 -61 -92 -43 11 -89 12 -106 3 -29 -16 -60 9 -73 59 -17 64 6 78 58 34z"/>
 <path d="M56 175 c-5 -15 2 -45 11 -45 2 0 11 7 19 15 14 13 14 17 0 30 -8 8 -17 15 -19 15 -3 0 -7 -7 -11 -15z"/>
 <path d="M183 183 c-24 -4 -31 -27 -13 -38 6 -3 16 -3 23 2 6 4 19 8 27 8 20 0 20 29 0 31 -8 1 -25 -1 -37 -3z"/>
 </g>

</svg>