<!DOCTYPE svg PUBLIC "-//W3C//DTD SVG 20010904//EN" "http://www.w3.org/TR/2001/REC-SVG-20010904/DTD/svg10.dtd">
<svg version="1.0" xmlns="http://www.w3.org/2000/svg" width="25px" height="26px" viewBox="0 0 250 260" preserveAspectRatio="xMidYMid meet">
<g id="layer101" fill="#ffffff" stroke="none">
 <path d="M22 244 c-19 -13 -22 -24 -21 -60 2 -25 6 -47 10 -50 4 -2 5 -13 2 -24 -3 -13 5 -36 23 -61 24 -35 30 -38 39 -25 10 13 14 13 33 -6 27 -27 42 -16 17 12 -13 14 -15 24 -8 31 7 7 14 5 23 -6 7 -8 19 -15 28 -15 12 0 10 6 -8 26 -20 21 -22 27 -10 34 21 13 -33 53 -84 62 -47 9 -60 25 -42 53 25 38 53 30 113 -29 57 -56 67 -61 97 -50 26 10 18 25 -9 18 -20 -5 -35 4 -83 50 -62 59 -83 66 -120 40z m96 -127 c9 -11 5 -20 -18 -42 -29 -28 -30 -28 -50 -10 -26 24 -25 50 2 69 22 16 44 10 66 -17z"/>
 </g>

</svg>